# xmcd
# 
# Track frame offsets:
#     150
#     14990
#     29925
#     42842
#     57257
#     68590
#     82112
#     95812
#     109237
#     118762
# 
# Disc length: 1719
# 
# Revision: 0
# Processed by: cddbd v1.5.2PL0 Copyright (c) Steve Scherf et al.
# Submitted via: fre:ac v1.0.17
# 
DISCID=9506b50a
DTITLE=George Jones - I Am What I Am
DYEAR=1980
DGENRE=Country
TTITLE0=He Stopped Loving Her Today
TTITLE1=I've Aged Twenty Years In Five
TTITLE2=Brother To The Blues
TTITLE3=If Drinkin' Don't Kill Me ( Her Memory Will )
TTITLE4=His Lovin' Her Is Gettin' In My Way
TTITLE5=I'm Not Ready Yet
TTITLE6=I'm The One She Missed Him With Today
TTITLE7=Good Hearted Woman
TTITLE8=A Hard Act To Follow
TTITLE9=Bone Dry
EXTD=
EXTT0=
EXTT1=
EXTT2=
EXTT3=
EXTT4=
EXTT5=
EXTT6=
EXTT7=
EXTT8=
EXTT9=
PLAYORDER=
